<svg width="226" height="92" viewBox="0 0 226 92" fill="none" xmlns="http://www.w3.org/2000/svg">
<g clip-path="url(#clip0)">
<path d="M37.2 0C39.2 0 41.2 0 43.2 0C44.7 0.2 46.1 0.6 47.6 0.6C88.4 0.6 129.1 0.6 169.9 0.5C181 0.5 192.1 0.2 203.2 0C203.5 0 203.9 0 204.2 0C204.6 0.5 205 1.1 205.5 1.3C215.3 5 217.6 8.7 216.6 18.8C216.5 19.8 217.5 20.9 218.1 21.8C220.2 25 222.6 28 224.3 31.4C226.3 35.3 226.6 39.3 223.7 43.3C222.1 45.5 221 48.4 220.8 51C220.5 55.4 220.6 59.9 221.5 64.1C222.1 66.8 221.5 67.7 219.3 68.7C218.5 69.1 218.3 71 218.2 72.2C218 74.8 218.2 77.4 218.2 80.6C218.2 80.6 219.1 81.3 220.6 82.3C218.5 83.4 217 84.7 215.4 85C207.9 86.2 200.4 87.9 192.8 88.1C176 88.7 159.2 88.5 142.4 88.6C106.2 89 69.9 89.4 33.7 89.9C29.2 90 24.8 91.6 20.4 91.4C16.5 91.2 11 90.5 9.3 87.9C5.6 82.5 2.7 75.7 1.6 69C-0.6 56.3 -0.7 43.3 2.8 30.6C3.8 27.1 3.7 23.3 4.8 19.9C5.9 16.3 7.7 12.9 9.5 9.6C10.5 7.9 12.1 5.8 13.8 5.4C20.7 3.7 27.8 2.7 34.8 1.4C35.7 1.1 36.4 0.4 37.2 0Z" fill="#FCDF2D"/>
</g>
<defs>
<clipPath id="clip0">
<rect width="225.9" height="91.7" fill="white"/>
</clipPath>
</defs>
</svg>
