<svg id="Calque_1" data-name="Calque 1" xmlns="http://www.w3.org/2000/svg" viewBox="0 0 1280 342.97"><defs><style>.cls-1{fill:#3c4384;}</style></defs><title>montagneBleu</title><path class="cls-1" d="M1280.63,19.79s-10-14-10-18-17,9-17,9c-13-7-21,0-22,4s-11,0-11,0-10,8-10,11c-4,4-15-10-14-12,0-4-7-7-12-5s-16,16-17,18-15,12-17,11-14,8-16,10a32.07,32.07,0,0,1-8,21c-2,2-10,10-11,14s-8,12-13,12-26,13-27,11-15,16-22,16h-10s-5,8-13,12-22,2-30,0-38,11-42,16-16-1-19,0-21,31-23,34-12,27-12,27-8-17-20-21c-10-12-22-22-34-3s-16,10-16,10-5,8-5,14c-9,6-63-44-69-50s-40-6-54,9-32,32-44,30-40,36-43,40-8-10-8-10-13,19-15,29-17,16-17,16-13-35-19-35-19-27-25-23-13,13-17,8-22-36-42-26-32,14-38,13-30-1-49,19-33,21-51,25-34,15-53,14-40-16-47-21-32,7-40,16-17,14-23,10-35-1-43,7-73,17-83,14-29,2-35,7-14,11-14,11V344h1280Z" transform="translate(-0.63 -1.03)"/></svg>