<svg id="Calque_1" data-name="Calque 1" xmlns="http://www.w3.org/2000/svg" viewBox="0 0 1280.37 490.76"><defs><style>.cls-1{fill:#eaeaea;}</style></defs><title>montagne</title><path class="cls-1" d="M-.37,21.8s10-16.09,10-20.69,17,10.35,17,10.35c13-8,21,0,22,4.6s11,0,11,0,10,9.19,10,12.64c4,4.59,15-11.5,14-13.79,0-4.6,7-8,12-5.75s16,18.39,17,20.69,15,13.79,17,12.64,14,9.19,16,11.49c0,12.64,6,21.84,8,24.14s10,11.49,11,16.09,8,13.79,13,13.79,26,14.94,27,12.64,15,18.39,22,18.39h10s5,9.19,13,13.79,22,2.3,30,0,38,12.64,42,18.39,16-1.15,19,0,21,35.63,23,39.08,12,31,12,31,8-19.54,20-24.14c10-13.79,22-25.28,34-3.45s16,11.5,16,11.5,5,9.19,5,16.09c9,6.89,63-50.57,69-57.47s40-6.89,54,10.35,32,36.77,44,34.48,40,41.37,43,46,8-11.5,8-11.5,13,21.84,15,33.33,17,18.39,17,18.39,13-40.22,19-40.22,19-31,25-26.44,13,14.94,17,9.2,22-41.38,42-29.88,32,16.09,38,14.94,30-1.15,49,21.83,33,.14,51,4.74,34,17.24,53,16.09,40-23.39,47-29.14,32,8.05,40,18.39,17,16.09,23,11.49,35-1.15,43,8.05,73,19.54,83,16.09,29,2.3,35,8,14,12.65,14,12.65V491H-.37Z" transform="translate(0.37 -0.24)"/></svg>